<svg xmlns="http://www.w3.org/2000/svg" xmlns:xlink="http://www.w3.org/1999/xlink" width="50" height="50" viewBox="0 0 50 50"><defs></defs><g transform="translate(-244 -2770.5)"><g transform="translate(244 2770.5)"><g><path d="M8.5,15.506l-2.71-4.864L10.643,5.79,15.506,8.5l5.18-2.146L22.209,1H29.07l1.523,5.356L35.773,8.5l4.864-2.71,4.852,4.852-2.71,4.864,2.146,5.18,5.356,1.523V29.07l-5.356,1.522-2.146,5.18,2.71,4.864-4.852,4.852-4.864-2.71-5.18,2.146L29.07,50.279H22.209l-1.522-5.356-5.18-2.146-4.864,2.71L5.791,40.636,8.5,35.773l-2.146-5.18L1,29.07V22.209l5.356-1.523Z" transform="translate(-0.64 -0.639)" fill="none" stroke="#7d92ac" stroke-linecap="round" stroke-linejoin="round" stroke-width="2"></path></g></g><g transform="translate(257.566 2787.644)"><path d="M39.812,57.244l-3.928,3.928L39.812,65.1" transform="translate(-35.884 -53.316)" fill="none" stroke="#7d92ac" stroke-linecap="square" stroke-miterlimit="10" stroke-width="2"></path><path d="M96.423,57.244l3.928,3.928L96.423,65.1" transform="translate(-76.782 -53.316)" fill="none" stroke="#7d92ac" stroke-linecap="square" stroke-miterlimit="10" stroke-width="2"></path><line y1="15.712" x2="3.928" transform="translate(9.82)" fill="none" stroke="#7d92ac" stroke-linecap="square" stroke-miterlimit="10" stroke-width="2"></line></g></g></svg>